#N canvas 167 19 1540 916 10;
#X obj 90 164 tgl 15 0 empty empty empty 17 7 0 10 -262144 -1 -1 1
1;
#X msg 14 165 \; pd dsp \$1 \;;
#X obj 148 164 loadbang;
#X msg 115 164 1;
#N canvas 0 50 1766 889 soundStorePlay 0;
#X obj 15 493 soundfiler;
#N canvas 0 22 450 278 (subpatch) 0;
#X array pelma1 88024 float 0;
#X coords 0 1 88023 -1 200 140 1 0 0;
#X restore 143 358 graph;
#N canvas 0 22 450 278 (subpatch) 0;
#X array pelma2 88076 float 0;
#X coords 0 1 88075 -1 200 140 1 0 0;
#X restore 387 358 graph;
#N canvas 0 22 450 278 (subpatch) 0;
#X array pelma3 88324 float 0;
#X coords 0 1 88323 -1 200 140 1 0 0;
#X restore 635 358 graph;
#N canvas 0 22 450 278 (subpatch) 0;
#X array pelma4 88186 float 0;
#X coords 0 1 88185 -1 200 140 1 0 0;
#X restore 880 358 graph;
#X msg 154 152 read -resize blin.wav pelma1;
#X msg 874 152 read -resize buzz.wav pelma4;
#X msg 634 152 read -resize blow.wav pelma3;
#X msg 394 152 read -resize bass.wav pelma2;
#X obj 984 31 loadbang;
#X obj 61 75 bng 15 250 50 0 empty empty empty 17 7 0 10 -262144 -1
-1;
#N canvas 0 22 450 278 (subpatch) 0;
#X array pelma5 88202 float 0;
#X coords 0 1 88201 -1 200 140 1 0 0;
#X restore 143 608 graph;
#N canvas 0 22 450 278 (subpatch) 0;
#X array pelma6 88184 float 0;
#X coords 0 1 88183 -1 200 140 1 0 0;
#X restore 387 608 graph;
#N canvas 0 22 450 278 (subpatch) 0;
#X array pelma7 88138 float 0;
#X coords 0 1 88137 -1 200 140 1 0 0;
#X restore 635 608 graph;
#N canvas 0 22 450 278 (subpatch) 0;
#X array pelma8 88278 float 0;
#X coords 0 1 88277 -1 200 140 1 0 0;
#X restore 880 608 graph;
#X msg 163 183 read -resize band.wav pelma5;
#X msg 403 183 read -resize bats.wav pelma6;
#X msg 643 183 read -resize bips.wav pelma7;
#X msg 883 183 read -resize briz.wav pelma8;
#N canvas 0 50 1626 848 check&play 0;
#X obj 585 255 bng 15 250 50 0 empty empty empty 17 7 0 10 -262144
-1 -1;
#X obj 652 753 dac~;
#X obj 661 717 *~;
#X obj 981 551 vsl 15 128 0 1 0 0 empty empty empty 0 -9 0 10 -262144
-1 -1 12700 1;
#X obj 981 698 pack 0 50;
#X obj 981 736 line~;
#X obj 585 289 tabplay~ pelma1;
#X obj 700 257 bng 15 250 50 0 empty empty empty 17 7 0 10 -262144
-1 -1;
#X obj 700 291 tabplay~ pelma2;
#X obj 809 260 bng 15 250 50 0 empty empty empty 17 7 0 10 -262144
-1 -1;
#X obj 916 259 bng 15 250 50 0 empty empty empty 17 7 0 10 -262144
-1 -1;
#X obj 809 294 tabplay~ pelma3;
#X obj 916 293 tabplay~ pelma4;
#X obj 1041 259 bng 15 250 50 0 empty empty empty 17 7 0 10 -262144
-1 -1;
#X obj 1154 260 bng 15 250 50 0 empty empty empty 17 7 0 10 -262144
-1 -1;
#X obj 1257 261 bng 15 250 50 0 empty empty empty 17 7 0 10 -262144
-1 -1;
#X obj 1364 260 bng 15 250 50 0 empty empty empty 17 7 0 10 -262144
-1 -1;
#X obj 1041 293 tabplay~ pelma5;
#X obj 1154 294 tabplay~ pelma6;
#X obj 1257 295 tabplay~ pelma7;
#X obj 1364 294 tabplay~ pelma8;
#X obj 616 58 r check;
#X obj 616 89 unpack 0 0;
#X obj 673 128 sel 1 2 3 4 5 6 7 8;
#X msg 1022 584 1;
#X obj 1022 551 inlet initAmp;
#N canvas 0 50 1050 715 counter 0;
#X floatatom 209 418 5 0 0 0 - - -;
#X obj 209 264 f;
#X obj 260 265 + 1;
#X floatatom 209 308 5 0 0 0 - - -;
#X msg 70 258 0;
#X obj 209 205 bng 15 250 50 0 empty empty empty 17 7 0 10 -262144
-1 -1;
#X obj 130 162 inlet init;
#X obj 209 162 inlet count;
#X obj 209 461 outlet;
#X obj 209 376 % 2;
#X obj 70 162 loadbang;
#X connect 0 0 8 0;
#X connect 1 0 3 0;
#X connect 1 0 2 0;
#X connect 2 0 1 1;
#X connect 3 0 9 0;
#X connect 4 0 1 1;
#X connect 5 0 1 0;
#X connect 6 0 4 0;
#X connect 7 0 5 0;
#X connect 9 0 0 0;
#X connect 10 0 4 0;
#X restore 138 194 pd counter;
#X obj 96 166 trigger list bang;
#X obj 96 301 route 0 1;
#X obj 222 192 bng 15 250 50 0 empty empty empty 17 7 0 10 -262144
-1 -1;
#X obj 96 249 list prepend;
#X obj 73 339 unpack 0 0;
#X obj 153 339 unpack 0 0;
#X obj 152 434 ==;
#X obj 152 476 sel 0 1;
#X obj 143 536 bng 15 250 50 0 empty empty empty 17 7 0 10 -262144
-1 -1;
#X obj 189 535 bng 15 250 50 0 empty empty empty 17 7 0 10 -262144
-1 -1;
#X obj 639 341 spigot;
#X obj 616 341 tgl 15 0 empty empty empty 17 7 0 10 -262144 -1 -1 0
1;
#X obj 756 341 spigot;
#X obj 733 341 tgl 15 0 empty empty empty 17 7 0 10 -262144 -1 -1 0
1;
#X obj 849 341 spigot;
#X obj 826 341 tgl 15 0 empty empty empty 17 7 0 10 -262144 -1 -1 0
1;
#X obj 966 341 spigot;
#X obj 943 341 tgl 15 0 empty empty empty 17 7 0 10 -262144 -1 -1 0
1;
#X obj 1069 341 spigot;
#X obj 1046 341 tgl 15 0 empty empty empty 17 7 0 10 -262144 -1 -1
0 1;
#X obj 1186 341 spigot;
#X obj 1163 341 tgl 15 0 empty empty empty 17 7 0 10 -262144 -1 -1
0 1;
#X obj 1279 341 spigot;
#X obj 1256 341 tgl 15 0 empty empty empty 17 7 0 10 -262144 -1 -1
0 1;
#X obj 1396 341 spigot;
#X obj 1373 341 tgl 15 0 empty empty empty 17 7 0 10 -262144 -1 -1
0 1;
#X obj 353 543 sel 1 2 3 4 5 6 7 8;
#X msg 311 463 1;
#X msg 601 314 0;
#X msg 421 463 1;
#X msg 711 314 0;
#X msg 511 463 1;
#X msg 801 314 0;
#X msg 611 463 1;
#X msg 901 314 0;
#X msg 701 463 1;
#X msg 1030 318 0;
#X msg 791 463 1;
#X msg 1120 318 0;
#X msg 911 463 1;
#X msg 1240 318 0;
#X msg 1051 463 1;
#X msg 1380 318 0;
#X msg 267 332 set \$1;
#X floatatom 291 738 5 0 0 0 - - -;
#X msg 47 665 8 0;
#X msg 87 665 12 0;
#X msg 37 615 set \$1 0;
#X msg 97 615 set \$1 0;
#X obj 114 770 s playwrong;
#X obj 193 772 s playright;
#X obj 67 698 s initwrong;
#X obj 370 766 tabplay~ bravo;
#X obj 481 767 tabplay~ boulo;
#X connect 0 0 6 0;
#X connect 2 0 1 0;
#X connect 2 0 1 1;
#X connect 3 0 4 0;
#X connect 4 0 5 0;
#X connect 5 0 2 1;
#X connect 6 0 2 0;
#X connect 6 1 37 0;
#X connect 7 0 8 0;
#X connect 8 0 2 0;
#X connect 8 1 39 0;
#X connect 9 0 11 0;
#X connect 10 0 12 0;
#X connect 11 0 2 0;
#X connect 11 1 41 0;
#X connect 12 0 2 0;
#X connect 12 1 43 0;
#X connect 13 0 17 0;
#X connect 14 0 18 0;
#X connect 15 0 19 0;
#X connect 16 0 20 0;
#X connect 17 0 2 0;
#X connect 17 1 45 0;
#X connect 18 0 2 0;
#X connect 18 1 47 0;
#X connect 19 0 2 0;
#X connect 19 1 49 0;
#X connect 20 0 2 0;
#X connect 20 1 51 0;
#X connect 21 0 22 0;
#X connect 21 0 27 0;
#X connect 22 1 23 0;
#X connect 23 0 0 0;
#X connect 23 1 7 0;
#X connect 23 2 9 0;
#X connect 23 3 10 0;
#X connect 23 4 13 0;
#X connect 23 5 14 0;
#X connect 23 6 15 0;
#X connect 23 7 16 0;
#X connect 24 0 3 0;
#X connect 25 0 24 0;
#X connect 26 0 30 1;
#X connect 27 0 30 0;
#X connect 27 1 26 1;
#X connect 28 0 31 0;
#X connect 28 1 32 0;
#X connect 29 0 26 0;
#X connect 30 0 28 0;
#X connect 31 0 74 0;
#X connect 31 1 33 1;
#X connect 32 0 75 0;
#X connect 32 1 53 0;
#X connect 32 1 70 0;
#X connect 33 0 34 0;
#X connect 34 0 35 0;
#X connect 34 1 36 0;
#X connect 35 0 76 0;
#X connect 35 0 72 0;
#X connect 35 0 73 0;
#X connect 35 0 80 0;
#X connect 36 0 77 0;
#X connect 36 0 79 0;
#X connect 37 0 71 0;
#X connect 37 0 55 0;
#X connect 38 0 37 1;
#X connect 39 0 71 0;
#X connect 39 0 57 0;
#X connect 40 0 39 1;
#X connect 41 0 71 0;
#X connect 41 0 59 0;
#X connect 42 0 41 1;
#X connect 43 0 71 0;
#X connect 43 0 61 0;
#X connect 44 0 43 1;
#X connect 45 0 71 0;
#X connect 45 0 63 0;
#X connect 46 0 45 1;
#X connect 47 0 71 0;
#X connect 47 0 65 0;
#X connect 48 0 47 1;
#X connect 49 0 71 0;
#X connect 49 0 67 0;
#X connect 50 0 49 1;
#X connect 51 0 71 0;
#X connect 51 0 69 0;
#X connect 52 0 51 1;
#X connect 53 0 54 0;
#X connect 53 1 56 0;
#X connect 53 2 58 0;
#X connect 53 3 60 0;
#X connect 53 4 62 0;
#X connect 53 5 64 0;
#X connect 53 6 66 0;
#X connect 53 7 68 0;
#X connect 54 0 38 0;
#X connect 55 0 38 0;
#X connect 56 0 40 0;
#X connect 57 0 40 0;
#X connect 58 0 42 0;
#X connect 59 0 42 0;
#X connect 60 0 44 0;
#X connect 61 0 44 0;
#X connect 62 0 46 0;
#X connect 63 0 46 0;
#X connect 64 0 48 0;
#X connect 65 0 48 0;
#X connect 66 0 50 0;
#X connect 67 0 50 0;
#X connect 68 0 52 0;
#X connect 69 0 52 0;
#X connect 70 0 71 0;
#X connect 71 0 33 0;
#X connect 72 0 78 0;
#X connect 73 0 78 0;
#X connect 74 0 72 0;
#X connect 75 0 73 0;
#X connect 79 0 2 0;
#X connect 80 0 2 0;
#X restore 1076 32 pd check&play;
#X obj 116 18 inlet;
#X obj 116 39 sel 0 1;
#X msg 674 242 read -resize noteC2.wav pelma1;
#X msg 914 242 read -resize noteD2.wav pelma2;
#X msg 1154 242 read -resize noteE2.wav pelma3;
#X msg 1394 242 read -resize noteF2.wav pelma4;
#X msg 683 273 read -resize noteG2.wav pelma5;
#X msg 923 273 read -resize noteA2.wav pelma6;
#X msg 1163 273 read -resize noteB2.wav pelma7;
#X msg 1403 273 read -resize noteC3.wav pelma8;
#X obj 187 66 bng 15 250 50 0 empty empty empty 17 7 0 10 -262144 -1
-1;
#N canvas 0 50 450 250 (subpatch) 0;
#X array bravo 52920 float 2;
#X coords 0 1 52920 -1 200 140 1;
#X restore 1220 525 graph;
#N canvas 0 50 450 250 (subpatch) 0;
#X array boulo 23452 float 2;
#X coords 0 1 23452 -1 200 140 1;
#X restore 1452 525 graph;
#X msg 1265 396 read -resize succ.wav bravo;
#X msg 1470 396 read -resize miss.wav boulo;
#X connect 5 0 0 0;
#X connect 6 0 0 0;
#X connect 7 0 0 0;
#X connect 8 0 0 0;
#X connect 9 0 5 0;
#X connect 9 0 8 0;
#X connect 9 0 7 0;
#X connect 9 0 6 0;
#X connect 9 0 15 0;
#X connect 9 0 18 0;
#X connect 9 0 17 0;
#X connect 9 0 16 0;
#X connect 9 0 19 0;
#X connect 9 0 33 0;
#X connect 9 0 34 0;
#X connect 10 0 5 0;
#X connect 10 0 6 0;
#X connect 10 0 7 0;
#X connect 10 0 8 0;
#X connect 10 0 15 0;
#X connect 10 0 18 0;
#X connect 10 0 17 0;
#X connect 10 0 16 0;
#X connect 15 0 0 0;
#X connect 16 0 0 0;
#X connect 17 0 0 0;
#X connect 18 0 0 0;
#X connect 20 0 21 0;
#X connect 21 0 10 0;
#X connect 21 1 30 0;
#X connect 22 0 0 0;
#X connect 23 0 0 0;
#X connect 24 0 0 0;
#X connect 25 0 0 0;
#X connect 26 0 0 0;
#X connect 27 0 0 0;
#X connect 28 0 0 0;
#X connect 29 0 0 0;
#X connect 30 0 22 0;
#X connect 30 0 29 0;
#X connect 30 0 28 0;
#X connect 30 0 27 0;
#X connect 30 0 26 0;
#X connect 30 0 25 0;
#X connect 30 0 24 0;
#X connect 30 0 23 0;
#X connect 33 0 0 0;
#X connect 34 0 0 0;
#X restore 15 313 pd soundStorePlay;
#X obj 477 59 tgl 45 0 empty empty empty 17 7 0 10 -204786 -1 -1 0
1;
#X msg 976 449 set \$1;
#X obj 976 420 tgl 15 0 empty empty empty 17 7 0 10 -262144 -1 -1 0
1;
#N canvas 0 50 1235 844 randomlistgen 0;
#X obj 41 41 bng 30 250 50 0 empty empty empty 17 7 0 10 -262144 -1
-1;
#X obj 41 129 + 1;
#X floatatom 41 156 5 0 0 0 - - -;
#X obj 84 292 spigot;
#X obj 63 292 tgl 15 0 empty empty empty 17 7 0 10 -262144 -1 -1 1
1;
#X obj 933 76 bng 30 250 50 0 empty empty empty 17 7 0 10 -262144 -1
-1;
#X floatatom 156 359 5 0 0 0 - - -;
#X msg 33 292 0;
#X msg 861 104 1;
#X msg 1014 102 0;
#X obj 42 81 until;
#X obj 933 48 loadbang;
#X obj 41 17 inlet generateList;
#N canvas 660 107 673 746 genonedigit 0;
#X obj 236 209 spigot;
#X obj 215 209 tgl 15 0 empty empty empty 17 7 0 10 -262144 -1 -1 0
1;
#X msg 185 209 1;
#X obj 216 253 sel;
#X floatatom 210 296 5 0 0 0 - - -;
#X obj 210 354 spigot;
#X obj 189 354 tgl 15 0 empty empty empty 17 7 0 10 -262144 -1 -1 1
1;
#X msg 159 354 0;
#X floatatom 210 408 5 0 0 0 - - -;
#X obj 44 132 inlet gateon;
#X obj 143 131 inlet gateoff;
#X obj 246 130 inlet;
#X obj 292 255 inlet tocheck;
#X obj 359 300 inlet safetyon;
#X obj 210 515 outlet currentrand;
#X obj 306 449 outlet nextgateon;
#X obj 450 411 outlet storecheck;
#X connect 0 0 3 0;
#X connect 1 0 0 1;
#X connect 2 0 1 0;
#X connect 3 1 4 0;
#X connect 4 0 5 0;
#X connect 4 0 16 0;
#X connect 5 0 7 0;
#X connect 5 0 8 0;
#X connect 5 0 15 0;
#X connect 6 0 5 1;
#X connect 7 0 6 0;
#X connect 8 0 14 0;
#X connect 9 0 2 0;
#X connect 10 0 1 0;
#X connect 11 0 0 0;
#X connect 12 0 3 1;
#X connect 13 0 6 0;
#X restore 111 316 pd genonedigit;
#N canvas 660 107 673 746 genonedigit 0;
#X obj 236 209 spigot;
#X obj 215 209 tgl 15 0 empty empty empty 17 7 0 10 -262144 -1 -1 0
1;
#X msg 185 209 1;
#X obj 216 253 sel;
#X floatatom 210 296 5 0 0 0 - - -;
#X obj 210 354 spigot;
#X obj 189 354 tgl 15 0 empty empty empty 17 7 0 10 -262144 -1 -1 1
1;
#X msg 159 354 0;
#X floatatom 210 408 5 0 0 0 - - -;
#X obj 44 132 inlet gateon;
#X obj 143 131 inlet gateoff;
#X obj 246 130 inlet;
#X obj 292 255 inlet tocheck;
#X obj 359 300 inlet safetyon;
#X obj 210 515 outlet currentrand;
#X obj 306 449 outlet nextgateon;
#X obj 450 411 outlet storecheck;
#X connect 0 0 3 0;
#X connect 1 0 0 1;
#X connect 2 0 1 0;
#X connect 3 1 4 0;
#X connect 4 0 5 0;
#X connect 4 0 16 0;
#X connect 5 0 7 0;
#X connect 5 0 8 0;
#X connect 5 0 15 0;
#X connect 6 0 5 1;
#X connect 7 0 6 0;
#X connect 8 0 14 0;
#X connect 9 0 2 0;
#X connect 10 0 1 0;
#X connect 11 0 0 0;
#X connect 12 0 3 1;
#X connect 13 0 6 0;
#X restore 182 286 pd genonedigit;
#N canvas 660 107 673 746 genonedigit 0;
#X obj 236 209 spigot;
#X obj 215 209 tgl 15 0 empty empty empty 17 7 0 10 -262144 -1 -1 0
1;
#X msg 185 209 1;
#X obj 216 253 sel;
#X floatatom 210 296 5 0 0 0 - - -;
#X obj 210 354 spigot;
#X obj 189 354 tgl 15 0 empty empty empty 17 7 0 10 -262144 -1 -1 1
1;
#X msg 159 354 0;
#X floatatom 210 408 5 0 0 0 - - -;
#X obj 44 132 inlet gateon;
#X obj 143 131 inlet gateoff;
#X obj 246 130 inlet;
#X obj 292 255 inlet tocheck;
#X obj 359 300 inlet safetyon;
#X obj 210 515 outlet currentrand;
#X obj 306 449 outlet nextgateon;
#X obj 450 411 outlet storecheck;
#X connect 0 0 3 0;
#X connect 1 0 0 1;
#X connect 2 0 1 0;
#X connect 3 1 4 0;
#X connect 4 0 5 0;
#X connect 4 0 16 0;
#X connect 5 0 7 0;
#X connect 5 0 8 0;
#X connect 5 0 15 0;
#X connect 6 0 5 1;
#X connect 7 0 6 0;
#X connect 8 0 14 0;
#X connect 9 0 2 0;
#X connect 10 0 1 0;
#X connect 11 0 0 0;
#X connect 12 0 3 1;
#X connect 13 0 6 0;
#X restore 249 310 pd genonedigit;
#X floatatom 208 358 5 0 0 0 - - -;
#X floatatom 248 358 5 0 0 0 - - -;
#X floatatom 292 355 5 0 0 0 - - -;
#X obj 241 103 bng 15 250 50 0 empty empty empty 17 7 0 10 -262144
-1 -1;
#N canvas 660 107 673 746 genonedigit 0;
#X obj 236 209 spigot;
#X obj 215 209 tgl 15 0 empty empty empty 17 7 0 10 -262144 -1 -1 0
1;
#X msg 185 209 1;
#X obj 216 253 sel;
#X floatatom 210 296 5 0 0 0 - - -;
#X obj 210 354 spigot;
#X obj 189 354 tgl 15 0 empty empty empty 17 7 0 10 -262144 -1 -1 1
1;
#X msg 159 354 0;
#X floatatom 210 408 5 0 0 0 - - -;
#X obj 44 132 inlet gateon;
#X obj 143 131 inlet gateoff;
#X obj 246 130 inlet;
#X obj 292 255 inlet tocheck;
#X obj 359 300 inlet safetyon;
#X obj 210 515 outlet currentrand;
#X obj 306 449 outlet nextgateon;
#X obj 450 411 outlet storecheck;
#X connect 0 0 3 0;
#X connect 1 0 0 1;
#X connect 2 0 1 0;
#X connect 3 1 4 0;
#X connect 4 0 5 0;
#X connect 4 0 16 0;
#X connect 5 0 7 0;
#X connect 5 0 8 0;
#X connect 5 0 15 0;
#X connect 6 0 5 1;
#X connect 7 0 6 0;
#X connect 8 0 14 0;
#X connect 9 0 2 0;
#X connect 10 0 1 0;
#X connect 11 0 0 0;
#X connect 12 0 3 1;
#X connect 13 0 6 0;
#X restore 326 282 pd genonedigit;
#N canvas 660 107 673 746 genonedigit 0;
#X obj 236 209 spigot;
#X obj 215 209 tgl 15 0 empty empty empty 17 7 0 10 -262144 -1 -1 0
1;
#X msg 185 209 1;
#X obj 216 253 sel;
#X floatatom 210 296 5 0 0 0 - - -;
#X obj 210 354 spigot;
#X obj 189 354 tgl 15 0 empty empty empty 17 7 0 10 -262144 -1 -1 1
1;
#X msg 159 354 0;
#X floatatom 210 408 5 0 0 0 - - -;
#X obj 44 132 inlet gateon;
#X obj 143 131 inlet gateoff;
#X obj 246 130 inlet;
#X obj 292 255 inlet tocheck;
#X obj 359 300 inlet safetyon;
#X obj 210 515 outlet currentrand;
#X obj 306 449 outlet nextgateon;
#X obj 450 411 outlet storecheck;
#X connect 0 0 3 0;
#X connect 1 0 0 1;
#X connect 2 0 1 0;
#X connect 3 1 4 0;
#X connect 4 0 5 0;
#X connect 4 0 16 0;
#X connect 5 0 7 0;
#X connect 5 0 8 0;
#X connect 5 0 15 0;
#X connect 6 0 5 1;
#X connect 7 0 6 0;
#X connect 8 0 14 0;
#X connect 9 0 2 0;
#X connect 10 0 1 0;
#X connect 11 0 0 0;
#X connect 12 0 3 1;
#X connect 13 0 6 0;
#X restore 392 308 pd genonedigit;
#N canvas 660 107 673 746 genonedigit 0;
#X obj 236 209 spigot;
#X obj 215 209 tgl 15 0 empty empty empty 17 7 0 10 -262144 -1 -1 0
1;
#X msg 185 209 1;
#X obj 216 253 sel;
#X floatatom 210 296 5 0 0 0 - - -;
#X obj 210 354 spigot;
#X obj 189 354 tgl 15 0 empty empty empty 17 7 0 10 -262144 -1 -1 1
1;
#X msg 159 354 0;
#X floatatom 210 408 5 0 0 0 - - -;
#X obj 44 132 inlet gateon;
#X obj 143 131 inlet gateoff;
#X obj 246 130 inlet;
#X obj 292 255 inlet tocheck;
#X obj 359 300 inlet safetyon;
#X obj 210 515 outlet currentrand;
#X obj 306 449 outlet nextgateon;
#X obj 450 411 outlet storecheck;
#X connect 0 0 3 0;
#X connect 1 0 0 1;
#X connect 2 0 1 0;
#X connect 3 1 4 0;
#X connect 4 0 5 0;
#X connect 4 0 16 0;
#X connect 5 0 7 0;
#X connect 5 0 8 0;
#X connect 5 0 15 0;
#X connect 6 0 5 1;
#X connect 7 0 6 0;
#X connect 8 0 14 0;
#X connect 9 0 2 0;
#X connect 10 0 1 0;
#X connect 11 0 0 0;
#X connect 12 0 3 1;
#X connect 13 0 6 0;
#X restore 454 281 pd genonedigit;
#N canvas 660 107 673 746 genonedigit 0;
#X obj 236 209 spigot;
#X obj 215 209 tgl 15 0 empty empty empty 17 7 0 10 -262144 -1 -1 0
1;
#X msg 185 209 1;
#X obj 216 253 sel;
#X floatatom 210 296 5 0 0 0 - - -;
#X obj 210 354 spigot;
#X obj 189 354 tgl 15 0 empty empty empty 17 7 0 10 -262144 -1 -1 1
1;
#X msg 159 354 0;
#X floatatom 210 408 5 0 0 0 - - -;
#X obj 44 132 inlet gateon;
#X obj 143 131 inlet gateoff;
#X obj 246 130 inlet;
#X obj 292 255 inlet tocheck;
#X obj 359 300 inlet safetyon;
#X obj 210 515 outlet currentrand;
#X obj 306 449 outlet nextgateon;
#X obj 450 411 outlet storecheck;
#X connect 0 0 3 0;
#X connect 1 0 0 1;
#X connect 2 0 1 0;
#X connect 3 1 4 0;
#X connect 4 0 5 0;
#X connect 4 0 16 0;
#X connect 5 0 7 0;
#X connect 5 0 8 0;
#X connect 5 0 15 0;
#X connect 6 0 5 1;
#X connect 7 0 6 0;
#X connect 8 0 14 0;
#X connect 9 0 2 0;
#X connect 10 0 1 0;
#X connect 11 0 0 0;
#X connect 12 0 3 1;
#X connect 13 0 6 0;
#X restore 525 309 pd genonedigit;
#X floatatom 340 355 5 0 0 0 - - -;
#X floatatom 383 354 5 0 0 0 - - -;
#X floatatom 423 354 5 0 0 0 - - -;
#X floatatom 467 351 5 0 0 0 - - -;
#N canvas 660 107 673 746 genonedigit 0;
#X obj 236 209 spigot;
#X obj 215 209 tgl 15 0 empty empty empty 17 7 0 10 -262144 -1 -1 0
1;
#X msg 185 209 1;
#X obj 216 253 sel;
#X floatatom 210 296 5 0 0 0 - - -;
#X obj 210 354 spigot;
#X obj 189 354 tgl 15 0 empty empty empty 17 7 0 10 -262144 -1 -1 1
1;
#X msg 159 354 0;
#X floatatom 210 408 5 0 0 0 - - -;
#X obj 44 132 inlet gateon;
#X obj 143 131 inlet gateoff;
#X obj 246 130 inlet;
#X obj 292 255 inlet tocheck;
#X obj 359 300 inlet safetyon;
#X obj 210 515 outlet currentrand;
#X obj 306 449 outlet nextgateon;
#X obj 450 411 outlet storecheck;
#X connect 0 0 3 0;
#X connect 1 0 0 1;
#X connect 2 0 1 0;
#X connect 3 1 4 0;
#X connect 4 0 5 0;
#X connect 4 0 16 0;
#X connect 5 0 7 0;
#X connect 5 0 8 0;
#X connect 5 0 15 0;
#X connect 6 0 5 1;
#X connect 7 0 6 0;
#X connect 8 0 14 0;
#X connect 9 0 2 0;
#X connect 10 0 1 0;
#X connect 11 0 0 0;
#X connect 12 0 3 1;
#X connect 13 0 6 0;
#X restore 671 311 pd genonedigit;
#N canvas 660 107 673 746 genonedigit 0;
#X obj 236 209 spigot;
#X obj 215 209 tgl 15 0 empty empty empty 17 7 0 10 -262144 -1 -1 0
1;
#X msg 185 209 1;
#X obj 216 253 sel;
#X floatatom 210 296 5 0 0 0 - - -;
#X obj 210 354 spigot;
#X obj 189 354 tgl 15 0 empty empty empty 17 7 0 10 -262144 -1 -1 1
1;
#X msg 159 354 0;
#X floatatom 210 408 5 0 0 0 - - -;
#X obj 44 132 inlet gateon;
#X obj 143 131 inlet gateoff;
#X obj 246 130 inlet;
#X obj 292 255 inlet tocheck;
#X obj 359 300 inlet safetyon;
#X obj 210 515 outlet currentrand;
#X obj 306 449 outlet nextgateon;
#X obj 450 411 outlet storecheck;
#X connect 0 0 3 0;
#X connect 1 0 0 1;
#X connect 2 0 1 0;
#X connect 3 1 4 0;
#X connect 4 0 5 0;
#X connect 4 0 16 0;
#X connect 5 0 7 0;
#X connect 5 0 8 0;
#X connect 5 0 15 0;
#X connect 6 0 5 1;
#X connect 7 0 6 0;
#X connect 8 0 14 0;
#X connect 9 0 2 0;
#X connect 10 0 1 0;
#X connect 11 0 0 0;
#X connect 12 0 3 1;
#X connect 13 0 6 0;
#X restore 742 282 pd genonedigit;
#N canvas 660 107 673 746 genonedigit 0;
#X obj 236 209 spigot;
#X obj 215 209 tgl 15 0 empty empty empty 17 7 0 10 -262144 -1 -1 0
1;
#X msg 185 209 1;
#X obj 216 253 sel;
#X floatatom 210 296 5 0 0 0 - - -;
#X obj 210 354 spigot;
#X obj 189 354 tgl 15 0 empty empty empty 17 7 0 10 -262144 -1 -1 1
1;
#X msg 159 354 0;
#X floatatom 210 408 5 0 0 0 - - -;
#X obj 44 132 inlet gateon;
#X obj 143 131 inlet gateoff;
#X obj 246 130 inlet;
#X obj 292 255 inlet tocheck;
#X obj 359 300 inlet safetyon;
#X obj 210 515 outlet currentrand;
#X obj 306 449 outlet nextgateon;
#X obj 450 411 outlet storecheck;
#X connect 0 0 3 0;
#X connect 1 0 0 1;
#X connect 2 0 1 0;
#X connect 3 1 4 0;
#X connect 4 0 5 0;
#X connect 4 0 16 0;
#X connect 5 0 7 0;
#X connect 5 0 8 0;
#X connect 5 0 15 0;
#X connect 6 0 5 1;
#X connect 7 0 6 0;
#X connect 8 0 14 0;
#X connect 9 0 2 0;
#X connect 10 0 1 0;
#X connect 11 0 0 0;
#X connect 12 0 3 1;
#X connect 13 0 6 0;
#X restore 804 307 pd genonedigit;
#X floatatom 729 351 5 0 0 0 - - -;
#X floatatom 769 351 5 0 0 0 - - -;
#X floatatom 813 348 5 0 0 0 - - -;
#N canvas 660 107 673 746 genonedigit 0;
#X obj 236 209 spigot;
#X obj 215 209 tgl 15 0 empty empty empty 17 7 0 10 -262144 -1 -1 0
1;
#X msg 185 209 1;
#X obj 216 253 sel;
#X floatatom 210 296 5 0 0 0 - - -;
#X obj 210 354 spigot;
#X obj 189 354 tgl 15 0 empty empty empty 17 7 0 10 -262144 -1 -1 1
1;
#X msg 159 354 0;
#X floatatom 210 408 5 0 0 0 - - -;
#X obj 44 132 inlet gateon;
#X obj 143 131 inlet gateoff;
#X obj 246 130 inlet;
#X obj 292 255 inlet tocheck;
#X obj 359 300 inlet safetyon;
#X obj 210 515 outlet currentrand;
#X obj 306 449 outlet nextgateon;
#X obj 450 411 outlet storecheck;
#X connect 0 0 3 0;
#X connect 1 0 0 1;
#X connect 2 0 1 0;
#X connect 3 1 4 0;
#X connect 4 0 5 0;
#X connect 4 0 16 0;
#X connect 5 0 7 0;
#X connect 5 0 8 0;
#X connect 5 0 15 0;
#X connect 6 0 5 1;
#X connect 7 0 6 0;
#X connect 8 0 14 0;
#X connect 9 0 2 0;
#X connect 10 0 1 0;
#X connect 11 0 0 0;
#X connect 12 0 3 1;
#X connect 13 0 6 0;
#X restore 880 282 pd genonedigit;
#N canvas 660 107 673 746 genonedigit 0;
#X obj 236 209 spigot;
#X obj 215 209 tgl 15 0 empty empty empty 17 7 0 10 -262144 -1 -1 0
1;
#X msg 185 209 1;
#X obj 216 253 sel;
#X floatatom 210 296 5 0 0 0 - - -;
#X obj 210 354 spigot;
#X obj 189 354 tgl 15 0 empty empty empty 17 7 0 10 -262144 -1 -1 1
1;
#X msg 159 354 0;
#X floatatom 210 408 5 0 0 0 - - -;
#X obj 44 132 inlet gateon;
#X obj 143 131 inlet gateoff;
#X obj 246 130 inlet;
#X obj 292 255 inlet tocheck;
#X obj 359 300 inlet safetyon;
#X obj 210 515 outlet currentrand;
#X obj 306 449 outlet nextgateon;
#X obj 450 411 outlet storecheck;
#X connect 0 0 3 0;
#X connect 1 0 0 1;
#X connect 2 0 1 0;
#X connect 3 1 4 0;
#X connect 4 0 5 0;
#X connect 4 0 16 0;
#X connect 5 0 7 0;
#X connect 5 0 8 0;
#X connect 5 0 15 0;
#X connect 6 0 5 1;
#X connect 7 0 6 0;
#X connect 8 0 14 0;
#X connect 9 0 2 0;
#X connect 10 0 1 0;
#X connect 11 0 0 0;
#X connect 12 0 3 1;
#X connect 13 0 6 0;
#X restore 941 308 pd genonedigit;
#N canvas 660 107 673 746 genonedigit 0;
#X obj 236 209 spigot;
#X obj 215 209 tgl 15 0 empty empty empty 17 7 0 10 -262144 -1 -1 0
1;
#X msg 185 209 1;
#X obj 216 253 sel;
#X floatatom 210 296 5 0 0 0 - - -;
#X obj 210 354 spigot;
#X obj 189 354 tgl 15 0 empty empty empty 17 7 0 10 -262144 -1 -1 1
1;
#X msg 159 354 0;
#X floatatom 210 408 5 0 0 0 - - -;
#X obj 44 132 inlet gateon;
#X obj 143 131 inlet gateoff;
#X obj 246 130 inlet;
#X obj 292 255 inlet tocheck;
#X obj 359 300 inlet safetyon;
#X obj 210 515 outlet currentrand;
#X obj 306 449 outlet nextgateon;
#X obj 450 411 outlet storecheck;
#X connect 0 0 3 0;
#X connect 1 0 0 1;
#X connect 2 0 1 0;
#X connect 3 1 4 0;
#X connect 4 0 5 0;
#X connect 4 0 16 0;
#X connect 5 0 7 0;
#X connect 5 0 8 0;
#X connect 5 0 15 0;
#X connect 6 0 5 1;
#X connect 7 0 6 0;
#X connect 8 0 14 0;
#X connect 9 0 2 0;
#X connect 10 0 1 0;
#X connect 11 0 0 0;
#X connect 12 0 3 1;
#X connect 13 0 6 0;
#X restore 1010 284 pd genonedigit;
#N canvas 660 107 673 746 genonedigit 0;
#X obj 236 209 spigot;
#X obj 215 209 tgl 15 0 empty empty empty 17 7 0 10 -262144 -1 -1 0
1;
#X msg 185 209 1;
#X obj 216 253 sel;
#X floatatom 210 296 5 0 0 0 - - -;
#X obj 210 354 spigot;
#X obj 189 354 tgl 15 0 empty empty empty 17 7 0 10 -262144 -1 -1 1
1;
#X msg 159 354 0;
#X floatatom 210 408 5 0 0 0 - - -;
#X obj 44 132 inlet gateon;
#X obj 143 131 inlet gateoff;
#X obj 246 130 inlet;
#X obj 292 255 inlet tocheck;
#X obj 359 300 inlet safetyon;
#X obj 210 515 outlet currentrand;
#X obj 306 449 outlet nextgateon;
#X obj 450 411 outlet storecheck;
#X connect 0 0 3 0;
#X connect 1 0 0 1;
#X connect 2 0 1 0;
#X connect 3 1 4 0;
#X connect 4 0 5 0;
#X connect 4 0 16 0;
#X connect 5 0 7 0;
#X connect 5 0 8 0;
#X connect 5 0 15 0;
#X connect 6 0 5 1;
#X connect 7 0 6 0;
#X connect 8 0 14 0;
#X connect 9 0 2 0;
#X connect 10 0 1 0;
#X connect 11 0 0 0;
#X connect 12 0 3 1;
#X connect 13 0 6 0;
#X restore 1087 307 pd genonedigit;
#X floatatom 861 348 5 0 0 0 - - -;
#X floatatom 904 347 5 0 0 0 - - -;
#X floatatom 944 347 5 0 0 0 - - -;
#X floatatom 988 344 5 0 0 0 - - -;
#N canvas 660 107 673 746 genonedigit 0;
#X obj 236 209 spigot;
#X obj 215 209 tgl 15 0 empty empty empty 17 7 0 10 -262144 -1 -1 0
1;
#X msg 185 209 1;
#X obj 216 253 sel;
#X floatatom 210 296 5 0 0 0 - - -;
#X obj 210 354 spigot;
#X obj 189 354 tgl 15 0 empty empty empty 17 7 0 10 -262144 -1 -1 1
1;
#X msg 159 354 0;
#X floatatom 210 408 5 0 0 0 - - -;
#X obj 44 132 inlet gateon;
#X obj 143 131 inlet gateoff;
#X obj 246 130 inlet;
#X obj 292 255 inlet tocheck;
#X obj 359 300 inlet safetyon;
#X obj 210 515 outlet currentrand;
#X obj 306 449 outlet nextgateon;
#X obj 450 411 outlet storecheck;
#X connect 0 0 3 0;
#X connect 1 0 0 1;
#X connect 2 0 1 0;
#X connect 3 1 4 0;
#X connect 4 0 5 0;
#X connect 4 0 16 0;
#X connect 5 0 7 0;
#X connect 5 0 8 0;
#X connect 5 0 15 0;
#X connect 6 0 5 1;
#X connect 7 0 6 0;
#X connect 8 0 14 0;
#X connect 9 0 2 0;
#X connect 10 0 1 0;
#X connect 11 0 0 0;
#X connect 12 0 3 1;
#X connect 13 0 6 0;
#X restore 596 286 pd genonedigit;
#X floatatom 685 350 5 0 0 0 - - -;
#X obj 40 104 random 16;
#X obj 471 447 pack 0 0 0 0 0 0 0 0 0 0 0 0 0 0 0 0;
#X obj 471 482 unpack 0 0 0 0 0 0 0 0 0 0 0 0 0 0 0 0;
#N canvas 286 208 605 537 listnorm 0;
#X obj 159 48 inlet;
#X obj 154 437 outlet;
#X obj 159 84 sel 9 10 11 12 13 14 15 16;
#X msg 33 236 1;
#X msg 74 235 2;
#X msg 113 236 3;
#X msg 154 235 4;
#X msg 193 236 5;
#X msg 234 235 6;
#X msg 273 236 7;
#X msg 314 235 8;
#X floatatom 361 235 5 0 0 0 - - -;
#X connect 0 0 2 0;
#X connect 2 0 3 0;
#X connect 2 1 4 0;
#X connect 2 2 5 0;
#X connect 2 3 6 0;
#X connect 2 4 7 0;
#X connect 2 5 8 0;
#X connect 2 6 9 0;
#X connect 2 7 10 0;
#X connect 2 8 11 0;
#X connect 3 0 1 0;
#X connect 4 0 1 0;
#X connect 5 0 1 0;
#X connect 6 0 1 0;
#X connect 7 0 1 0;
#X connect 8 0 1 0;
#X connect 9 0 1 0;
#X connect 10 0 1 0;
#X connect 11 0 1 0;
#X restore 298 530 pd listnorm;
#X obj 519 631 pack 0 0 0 0 0 0 0 0 0 0 0 0 0 0 0 0;
#N canvas 286 208 605 537 listnorm 0;
#X obj 159 48 inlet;
#X obj 154 437 outlet;
#X obj 159 84 sel 9 10 11 12 13 14 15 16;
#X msg 33 236 1;
#X msg 74 235 2;
#X msg 113 236 3;
#X msg 154 235 4;
#X msg 193 236 5;
#X msg 234 235 6;
#X msg 273 236 7;
#X msg 314 235 8;
#X floatatom 361 235 5 0 0 0 - - -;
#X connect 0 0 2 0;
#X connect 2 0 3 0;
#X connect 2 1 4 0;
#X connect 2 2 5 0;
#X connect 2 3 6 0;
#X connect 2 4 7 0;
#X connect 2 5 8 0;
#X connect 2 6 9 0;
#X connect 2 7 10 0;
#X connect 2 8 11 0;
#X connect 3 0 1 0;
#X connect 4 0 1 0;
#X connect 5 0 1 0;
#X connect 6 0 1 0;
#X connect 7 0 1 0;
#X connect 8 0 1 0;
#X connect 9 0 1 0;
#X connect 10 0 1 0;
#X connect 11 0 1 0;
#X restore 339 554 pd listnorm;
#N canvas 286 208 605 537 listnorm 0;
#X obj 159 48 inlet;
#X obj 154 437 outlet;
#X obj 159 84 sel 9 10 11 12 13 14 15 16;
#X msg 33 236 1;
#X msg 74 235 2;
#X msg 113 236 3;
#X msg 154 235 4;
#X msg 193 236 5;
#X msg 234 235 6;
#X msg 273 236 7;
#X msg 314 235 8;
#X floatatom 361 235 5 0 0 0 - - -;
#X connect 0 0 2 0;
#X connect 2 0 3 0;
#X connect 2 1 4 0;
#X connect 2 2 5 0;
#X connect 2 3 6 0;
#X connect 2 4 7 0;
#X connect 2 5 8 0;
#X connect 2 6 9 0;
#X connect 2 7 10 0;
#X connect 2 8 11 0;
#X connect 3 0 1 0;
#X connect 4 0 1 0;
#X connect 5 0 1 0;
#X connect 6 0 1 0;
#X connect 7 0 1 0;
#X connect 8 0 1 0;
#X connect 9 0 1 0;
#X connect 10 0 1 0;
#X connect 11 0 1 0;
#X restore 398 530 pd listnorm;
#N canvas 286 208 605 537 listnorm 0;
#X obj 159 48 inlet;
#X obj 154 437 outlet;
#X obj 159 84 sel 9 10 11 12 13 14 15 16;
#X msg 33 236 1;
#X msg 74 235 2;
#X msg 113 236 3;
#X msg 154 235 4;
#X msg 193 236 5;
#X msg 234 235 6;
#X msg 273 236 7;
#X msg 314 235 8;
#X floatatom 361 235 5 0 0 0 - - -;
#X connect 0 0 2 0;
#X connect 2 0 3 0;
#X connect 2 1 4 0;
#X connect 2 2 5 0;
#X connect 2 3 6 0;
#X connect 2 4 7 0;
#X connect 2 5 8 0;
#X connect 2 6 9 0;
#X connect 2 7 10 0;
#X connect 2 8 11 0;
#X connect 3 0 1 0;
#X connect 4 0 1 0;
#X connect 5 0 1 0;
#X connect 6 0 1 0;
#X connect 7 0 1 0;
#X connect 8 0 1 0;
#X connect 9 0 1 0;
#X connect 10 0 1 0;
#X connect 11 0 1 0;
#X restore 439 554 pd listnorm;
#N canvas 286 208 605 537 listnorm 0;
#X obj 159 48 inlet;
#X obj 154 437 outlet;
#X obj 159 84 sel 9 10 11 12 13 14 15 16;
#X msg 33 236 1;
#X msg 74 235 2;
#X msg 113 236 3;
#X msg 154 235 4;
#X msg 193 236 5;
#X msg 234 235 6;
#X msg 273 236 7;
#X msg 314 235 8;
#X floatatom 361 235 5 0 0 0 - - -;
#X connect 0 0 2 0;
#X connect 2 0 3 0;
#X connect 2 1 4 0;
#X connect 2 2 5 0;
#X connect 2 3 6 0;
#X connect 2 4 7 0;
#X connect 2 5 8 0;
#X connect 2 6 9 0;
#X connect 2 7 10 0;
#X connect 2 8 11 0;
#X connect 3 0 1 0;
#X connect 4 0 1 0;
#X connect 5 0 1 0;
#X connect 6 0 1 0;
#X connect 7 0 1 0;
#X connect 8 0 1 0;
#X connect 9 0 1 0;
#X connect 10 0 1 0;
#X connect 11 0 1 0;
#X restore 488 530 pd listnorm;
#N canvas 286 208 605 537 listnorm 0;
#X obj 159 48 inlet;
#X obj 154 437 outlet;
#X obj 159 84 sel 9 10 11 12 13 14 15 16;
#X msg 33 236 1;
#X msg 74 235 2;
#X msg 113 236 3;
#X msg 154 235 4;
#X msg 193 236 5;
#X msg 234 235 6;
#X msg 273 236 7;
#X msg 314 235 8;
#X floatatom 361 235 5 0 0 0 - - -;
#X connect 0 0 2 0;
#X connect 2 0 3 0;
#X connect 2 1 4 0;
#X connect 2 2 5 0;
#X connect 2 3 6 0;
#X connect 2 4 7 0;
#X connect 2 5 8 0;
#X connect 2 6 9 0;
#X connect 2 7 10 0;
#X connect 2 8 11 0;
#X connect 3 0 1 0;
#X connect 4 0 1 0;
#X connect 5 0 1 0;
#X connect 6 0 1 0;
#X connect 7 0 1 0;
#X connect 8 0 1 0;
#X connect 9 0 1 0;
#X connect 10 0 1 0;
#X connect 11 0 1 0;
#X restore 529 554 pd listnorm;
#N canvas 286 208 605 537 listnorm 0;
#X obj 159 48 inlet;
#X obj 154 437 outlet;
#X obj 159 84 sel 9 10 11 12 13 14 15 16;
#X msg 33 236 1;
#X msg 74 235 2;
#X msg 113 236 3;
#X msg 154 235 4;
#X msg 193 236 5;
#X msg 234 235 6;
#X msg 273 236 7;
#X msg 314 235 8;
#X floatatom 361 235 5 0 0 0 - - -;
#X connect 0 0 2 0;
#X connect 2 0 3 0;
#X connect 2 1 4 0;
#X connect 2 2 5 0;
#X connect 2 3 6 0;
#X connect 2 4 7 0;
#X connect 2 5 8 0;
#X connect 2 6 9 0;
#X connect 2 7 10 0;
#X connect 2 8 11 0;
#X connect 3 0 1 0;
#X connect 4 0 1 0;
#X connect 5 0 1 0;
#X connect 6 0 1 0;
#X connect 7 0 1 0;
#X connect 8 0 1 0;
#X connect 9 0 1 0;
#X connect 10 0 1 0;
#X connect 11 0 1 0;
#X restore 588 530 pd listnorm;
#N canvas 286 208 605 537 listnorm 0;
#X obj 159 48 inlet;
#X obj 154 437 outlet;
#X obj 159 84 sel 9 10 11 12 13 14 15 16;
#X msg 33 236 1;
#X msg 74 235 2;
#X msg 113 236 3;
#X msg 154 235 4;
#X msg 193 236 5;
#X msg 234 235 6;
#X msg 273 236 7;
#X msg 314 235 8;
#X floatatom 361 235 5 0 0 0 - - -;
#X connect 0 0 2 0;
#X connect 2 0 3 0;
#X connect 2 1 4 0;
#X connect 2 2 5 0;
#X connect 2 3 6 0;
#X connect 2 4 7 0;
#X connect 2 5 8 0;
#X connect 2 6 9 0;
#X connect 2 7 10 0;
#X connect 2 8 11 0;
#X connect 3 0 1 0;
#X connect 4 0 1 0;
#X connect 5 0 1 0;
#X connect 6 0 1 0;
#X connect 7 0 1 0;
#X connect 8 0 1 0;
#X connect 9 0 1 0;
#X connect 10 0 1 0;
#X connect 11 0 1 0;
#X restore 629 554 pd listnorm;
#N canvas 286 208 605 537 listnorm 0;
#X obj 159 48 inlet;
#X obj 154 437 outlet;
#X obj 159 84 sel 9 10 11 12 13 14 15 16;
#X msg 33 236 1;
#X msg 74 235 2;
#X msg 113 236 3;
#X msg 154 235 4;
#X msg 193 236 5;
#X msg 234 235 6;
#X msg 273 236 7;
#X msg 314 235 8;
#X floatatom 361 235 5 0 0 0 - - -;
#X connect 0 0 2 0;
#X connect 2 0 3 0;
#X connect 2 1 4 0;
#X connect 2 2 5 0;
#X connect 2 3 6 0;
#X connect 2 4 7 0;
#X connect 2 5 8 0;
#X connect 2 6 9 0;
#X connect 2 7 10 0;
#X connect 2 8 11 0;
#X connect 3 0 1 0;
#X connect 4 0 1 0;
#X connect 5 0 1 0;
#X connect 6 0 1 0;
#X connect 7 0 1 0;
#X connect 8 0 1 0;
#X connect 9 0 1 0;
#X connect 10 0 1 0;
#X connect 11 0 1 0;
#X restore 688 530 pd listnorm;
#N canvas 286 208 605 537 listnorm 0;
#X obj 159 48 inlet;
#X obj 154 437 outlet;
#X obj 159 84 sel 9 10 11 12 13 14 15 16;
#X msg 33 236 1;
#X msg 74 235 2;
#X msg 113 236 3;
#X msg 154 235 4;
#X msg 193 236 5;
#X msg 234 235 6;
#X msg 273 236 7;
#X msg 314 235 8;
#X floatatom 361 235 5 0 0 0 - - -;
#X connect 0 0 2 0;
#X connect 2 0 3 0;
#X connect 2 1 4 0;
#X connect 2 2 5 0;
#X connect 2 3 6 0;
#X connect 2 4 7 0;
#X connect 2 5 8 0;
#X connect 2 6 9 0;
#X connect 2 7 10 0;
#X connect 2 8 11 0;
#X connect 3 0 1 0;
#X connect 4 0 1 0;
#X connect 5 0 1 0;
#X connect 6 0 1 0;
#X connect 7 0 1 0;
#X connect 8 0 1 0;
#X connect 9 0 1 0;
#X connect 10 0 1 0;
#X connect 11 0 1 0;
#X restore 729 554 pd listnorm;
#N canvas 286 208 605 537 listnorm 0;
#X obj 159 48 inlet;
#X obj 154 437 outlet;
#X obj 159 84 sel 9 10 11 12 13 14 15 16;
#X msg 33 236 1;
#X msg 74 235 2;
#X msg 113 236 3;
#X msg 154 235 4;
#X msg 193 236 5;
#X msg 234 235 6;
#X msg 273 236 7;
#X msg 314 235 8;
#X floatatom 361 235 5 0 0 0 - - -;
#X connect 0 0 2 0;
#X connect 2 0 3 0;
#X connect 2 1 4 0;
#X connect 2 2 5 0;
#X connect 2 3 6 0;
#X connect 2 4 7 0;
#X connect 2 5 8 0;
#X connect 2 6 9 0;
#X connect 2 7 10 0;
#X connect 2 8 11 0;
#X connect 3 0 1 0;
#X connect 4 0 1 0;
#X connect 5 0 1 0;
#X connect 6 0 1 0;
#X connect 7 0 1 0;
#X connect 8 0 1 0;
#X connect 9 0 1 0;
#X connect 10 0 1 0;
#X connect 11 0 1 0;
#X restore 788 530 pd listnorm;
#N canvas 286 208 605 537 listnorm 0;
#X obj 159 48 inlet;
#X obj 154 437 outlet;
#X obj 159 84 sel 9 10 11 12 13 14 15 16;
#X msg 33 236 1;
#X msg 74 235 2;
#X msg 113 236 3;
#X msg 154 235 4;
#X msg 193 236 5;
#X msg 234 235 6;
#X msg 273 236 7;
#X msg 314 235 8;
#X floatatom 361 235 5 0 0 0 - - -;
#X connect 0 0 2 0;
#X connect 2 0 3 0;
#X connect 2 1 4 0;
#X connect 2 2 5 0;
#X connect 2 3 6 0;
#X connect 2 4 7 0;
#X connect 2 5 8 0;
#X connect 2 6 9 0;
#X connect 2 7 10 0;
#X connect 2 8 11 0;
#X connect 3 0 1 0;
#X connect 4 0 1 0;
#X connect 5 0 1 0;
#X connect 6 0 1 0;
#X connect 7 0 1 0;
#X connect 8 0 1 0;
#X connect 9 0 1 0;
#X connect 10 0 1 0;
#X connect 11 0 1 0;
#X restore 829 554 pd listnorm;
#N canvas 286 208 605 537 listnorm 0;
#X obj 159 48 inlet;
#X obj 154 437 outlet;
#X obj 159 84 sel 9 10 11 12 13 14 15 16;
#X msg 33 236 1;
#X msg 74 235 2;
#X msg 113 236 3;
#X msg 154 235 4;
#X msg 193 236 5;
#X msg 234 235 6;
#X msg 273 236 7;
#X msg 314 235 8;
#X floatatom 361 235 5 0 0 0 - - -;
#X connect 0 0 2 0;
#X connect 2 0 3 0;
#X connect 2 1 4 0;
#X connect 2 2 5 0;
#X connect 2 3 6 0;
#X connect 2 4 7 0;
#X connect 2 5 8 0;
#X connect 2 6 9 0;
#X connect 2 7 10 0;
#X connect 2 8 11 0;
#X connect 3 0 1 0;
#X connect 4 0 1 0;
#X connect 5 0 1 0;
#X connect 6 0 1 0;
#X connect 7 0 1 0;
#X connect 8 0 1 0;
#X connect 9 0 1 0;
#X connect 10 0 1 0;
#X connect 11 0 1 0;
#X restore 878 530 pd listnorm;
#N canvas 286 208 605 537 listnorm 0;
#X obj 159 48 inlet;
#X obj 154 437 outlet;
#X obj 159 84 sel 9 10 11 12 13 14 15 16;
#X msg 33 236 1;
#X msg 74 235 2;
#X msg 113 236 3;
#X msg 154 235 4;
#X msg 193 236 5;
#X msg 234 235 6;
#X msg 273 236 7;
#X msg 314 235 8;
#X floatatom 361 235 5 0 0 0 - - -;
#X connect 0 0 2 0;
#X connect 2 0 3 0;
#X connect 2 1 4 0;
#X connect 2 2 5 0;
#X connect 2 3 6 0;
#X connect 2 4 7 0;
#X connect 2 5 8 0;
#X connect 2 6 9 0;
#X connect 2 7 10 0;
#X connect 2 8 11 0;
#X connect 3 0 1 0;
#X connect 4 0 1 0;
#X connect 5 0 1 0;
#X connect 6 0 1 0;
#X connect 7 0 1 0;
#X connect 8 0 1 0;
#X connect 9 0 1 0;
#X connect 10 0 1 0;
#X connect 11 0 1 0;
#X restore 919 554 pd listnorm;
#N canvas 286 208 605 537 listnorm 0;
#X obj 159 48 inlet;
#X obj 154 437 outlet;
#X obj 159 84 sel 9 10 11 12 13 14 15 16;
#X msg 33 236 1;
#X msg 74 235 2;
#X msg 113 236 3;
#X msg 154 235 4;
#X msg 193 236 5;
#X msg 234 235 6;
#X msg 273 236 7;
#X msg 314 235 8;
#X floatatom 361 235 5 0 0 0 - - -;
#X connect 0 0 2 0;
#X connect 2 0 3 0;
#X connect 2 1 4 0;
#X connect 2 2 5 0;
#X connect 2 3 6 0;
#X connect 2 4 7 0;
#X connect 2 5 8 0;
#X connect 2 6 9 0;
#X connect 2 7 10 0;
#X connect 2 8 11 0;
#X connect 3 0 1 0;
#X connect 4 0 1 0;
#X connect 5 0 1 0;
#X connect 6 0 1 0;
#X connect 7 0 1 0;
#X connect 8 0 1 0;
#X connect 9 0 1 0;
#X connect 10 0 1 0;
#X connect 11 0 1 0;
#X restore 978 530 pd listnorm;
#N canvas 286 208 605 537 listnorm 0;
#X obj 159 48 inlet;
#X obj 154 437 outlet;
#X obj 159 84 sel 9 10 11 12 13 14 15 16;
#X msg 33 236 1;
#X msg 74 235 2;
#X msg 113 236 3;
#X msg 154 235 4;
#X msg 193 236 5;
#X msg 234 235 6;
#X msg 273 236 7;
#X msg 314 235 8;
#X floatatom 361 235 5 0 0 0 - - -;
#X connect 0 0 2 0;
#X connect 2 0 3 0;
#X connect 2 1 4 0;
#X connect 2 2 5 0;
#X connect 2 3 6 0;
#X connect 2 4 7 0;
#X connect 2 5 8 0;
#X connect 2 6 9 0;
#X connect 2 7 10 0;
#X connect 2 8 11 0;
#X connect 3 0 1 0;
#X connect 4 0 1 0;
#X connect 5 0 1 0;
#X connect 6 0 1 0;
#X connect 7 0 1 0;
#X connect 8 0 1 0;
#X connect 9 0 1 0;
#X connect 10 0 1 0;
#X connect 11 0 1 0;
#X restore 1019 554 pd listnorm;
#X msg 49 317 set \$1;
#X obj 519 694 outlet;
#X obj 396 656 print solution;
#X connect 0 0 10 0;
#X connect 1 0 2 0;
#X connect 2 0 3 0;
#X connect 2 0 13 2;
#X connect 3 0 7 0;
#X connect 3 0 13 0;
#X connect 3 0 13 3;
#X connect 3 0 64 0;
#X connect 4 0 3 1;
#X connect 5 0 8 0;
#X connect 5 0 9 0;
#X connect 6 0 45 0;
#X connect 7 0 4 0;
#X connect 8 0 4 0;
#X connect 8 0 13 4;
#X connect 8 0 14 4;
#X connect 8 0 15 4;
#X connect 8 0 20 4;
#X connect 8 0 21 4;
#X connect 8 0 22 4;
#X connect 8 0 23 4;
#X connect 8 0 42 4;
#X connect 8 0 28 4;
#X connect 8 0 29 4;
#X connect 8 0 30 4;
#X connect 8 0 34 4;
#X connect 8 0 35 4;
#X connect 8 0 36 4;
#X connect 8 0 37 4;
#X connect 9 0 14 1;
#X connect 9 0 13 1;
#X connect 9 0 15 1;
#X connect 9 0 20 1;
#X connect 9 0 21 1;
#X connect 9 0 22 1;
#X connect 9 0 23 1;
#X connect 9 0 42 1;
#X connect 9 0 28 1;
#X connect 9 0 29 1;
#X connect 9 0 30 1;
#X connect 9 0 34 1;
#X connect 9 0 35 1;
#X connect 9 0 36 1;
#X connect 9 0 37 1;
#X connect 10 0 44 0;
#X connect 11 0 5 0;
#X connect 12 0 0 0;
#X connect 13 0 16 0;
#X connect 13 1 14 0;
#X connect 13 1 14 3;
#X connect 13 2 14 2;
#X connect 14 0 17 0;
#X connect 14 1 15 0;
#X connect 14 1 15 3;
#X connect 14 2 15 2;
#X connect 15 0 18 0;
#X connect 15 1 20 0;
#X connect 15 1 20 3;
#X connect 15 2 20 2;
#X connect 16 0 45 1;
#X connect 17 0 45 2;
#X connect 18 0 45 3;
#X connect 19 0 10 1;
#X connect 19 0 5 0;
#X connect 19 0 6 0;
#X connect 20 0 24 0;
#X connect 20 1 21 0;
#X connect 20 1 21 3;
#X connect 20 2 21 2;
#X connect 21 0 25 0;
#X connect 21 1 22 0;
#X connect 21 1 22 3;
#X connect 21 2 22 2;
#X connect 22 0 26 0;
#X connect 22 1 23 0;
#X connect 22 1 23 3;
#X connect 22 2 23 2;
#X connect 23 0 27 0;
#X connect 23 1 42 0;
#X connect 23 1 42 3;
#X connect 23 2 42 2;
#X connect 24 0 45 4;
#X connect 25 0 45 5;
#X connect 26 0 45 6;
#X connect 27 0 45 7;
#X connect 28 0 31 0;
#X connect 28 1 29 0;
#X connect 28 1 29 3;
#X connect 28 2 29 2;
#X connect 29 0 32 0;
#X connect 29 1 30 0;
#X connect 29 1 30 3;
#X connect 29 2 30 2;
#X connect 30 0 33 0;
#X connect 30 1 34 0;
#X connect 30 1 34 3;
#X connect 30 2 34 2;
#X connect 31 0 45 9;
#X connect 32 0 45 10;
#X connect 33 0 45 11;
#X connect 34 0 38 0;
#X connect 34 1 35 0;
#X connect 34 1 35 3;
#X connect 34 2 35 2;
#X connect 35 0 39 0;
#X connect 35 1 36 0;
#X connect 35 1 36 3;
#X connect 35 2 36 2;
#X connect 36 0 40 0;
#X connect 36 1 37 0;
#X connect 36 1 37 3;
#X connect 36 2 37 2;
#X connect 37 0 41 0;
#X connect 38 0 45 12;
#X connect 39 0 45 13;
#X connect 40 0 45 14;
#X connect 41 0 45 15;
#X connect 41 0 19 0;
#X connect 42 0 43 0;
#X connect 42 1 28 0;
#X connect 42 1 28 3;
#X connect 42 2 28 2;
#X connect 43 0 45 8;
#X connect 44 0 1 0;
#X connect 45 0 46 0;
#X connect 46 0 47 0;
#X connect 46 1 49 0;
#X connect 46 2 50 0;
#X connect 46 3 51 0;
#X connect 46 4 52 0;
#X connect 46 5 53 0;
#X connect 46 6 54 0;
#X connect 46 7 55 0;
#X connect 46 8 56 0;
#X connect 46 9 57 0;
#X connect 46 10 58 0;
#X connect 46 11 59 0;
#X connect 46 12 60 0;
#X connect 46 13 61 0;
#X connect 46 14 62 0;
#X connect 46 15 63 0;
#X connect 47 0 48 0;
#X connect 48 0 65 0;
#X connect 48 0 66 0;
#X connect 49 0 48 1;
#X connect 50 0 48 2;
#X connect 51 0 48 3;
#X connect 52 0 48 4;
#X connect 53 0 48 5;
#X connect 54 0 48 6;
#X connect 55 0 48 7;
#X connect 56 0 48 8;
#X connect 57 0 48 9;
#X connect 58 0 48 10;
#X connect 59 0 48 11;
#X connect 60 0 48 12;
#X connect 61 0 48 13;
#X connect 62 0 48 14;
#X connect 63 0 48 15;
#X connect 64 0 6 0;
#X restore 30 542 pd randomlistgen;
#X obj 29 574 unpack 0 0 0 0 0 0 0 0 0 0 0 0 0 0 0 0;
#X obj 52 402 bng 35 250 50 0 empty empty empty 17 7 0 10 -4034 -1
-1;
#X obj 627 59 tgl 45 0 empty empty empty 17 7 0 10 -204786 -1 -1 0
1;
#X msg 1126 449 set \$1;
#X obj 1126 420 tgl 15 0 empty empty empty 17 7 0 10 -262144 -1 -1
0 1;
#X obj 777 59 tgl 45 0 empty empty empty 17 7 0 10 -204786 -1 -1 0
1;
#X msg 1276 449 set \$1;
#X obj 1276 420 tgl 15 0 empty empty empty 17 7 0 10 -262144 -1 -1
0 1;
#X obj 927 59 tgl 45 0 empty empty empty 17 7 0 10 -204786 -1 -1 0
1;
#X msg 1426 449 set \$1;
#X obj 1426 420 tgl 15 0 empty empty empty 17 7 0 10 -262144 -1 -1
0 1;
#X obj 477 157 tgl 45 0 empty empty empty 17 7 0 10 -204786 -1 -1 0
1;
#X msg 976 567 set \$1;
#X obj 976 538 tgl 15 0 empty empty empty 17 7 0 10 -262144 -1 -1 0
1;
#X obj 627 157 tgl 45 0 empty empty empty 17 7 0 10 -204786 -1 -1 0
1;
#X msg 1126 567 set \$1;
#X obj 1126 538 tgl 15 0 empty empty empty 17 7 0 10 -262144 -1 -1
0 1;
#X obj 777 157 tgl 45 0 empty empty empty 17 7 0 10 -204786 -1 -1 0
1;
#X msg 1276 567 set \$1;
#X obj 1276 538 tgl 15 0 empty empty empty 17 7 0 10 -262144 -1 -1
0 1;
#X obj 927 157 tgl 45 0 empty empty empty 17 7 0 10 -204786 -1 -1 0
1;
#X msg 1426 567 set \$1;
#X obj 1426 538 tgl 15 0 empty empty empty 17 7 0 10 -262144 -1 -1
0 1;
#X obj 477 246 tgl 45 0 empty empty empty 17 7 0 10 -204786 -1 -1 0
1;
#X msg 976 686 set \$1;
#X obj 976 654 tgl 15 0 empty empty empty 17 7 0 10 -262144 -1 -1 0
1;
#X obj 627 246 tgl 45 0 empty empty empty 17 7 0 10 -204786 -1 -1 0
1;
#X msg 1126 686 set \$1;
#X obj 1126 654 tgl 15 0 empty empty empty 17 7 0 10 -262144 -1 -1
0 1;
#X obj 777 246 tgl 45 0 empty empty empty 17 7 0 10 -204786 -1 -1 0
1;
#X msg 1276 686 set \$1;
#X obj 1276 656 tgl 15 0 empty empty empty 17 7 0 10 -262144 -1 -1
0 1;
#X obj 927 246 tgl 45 0 empty empty empty 17 7 0 10 -204786 -1 -1 0
1;
#X msg 1426 686 set \$1;
#X obj 1426 654 tgl 15 0 empty empty empty 17 7 0 10 -262144 -1 -1
0 1;
#X obj 477 336 tgl 45 0 empty empty empty 17 7 0 10 -204786 -1 -1 0
1;
#X msg 976 795 set \$1;
#X obj 976 777 tgl 15 0 empty empty empty 17 7 0 10 -262144 -1 -1 0
1;
#X obj 627 336 tgl 45 0 empty empty empty 17 7 0 10 -204786 -1 -1 0
1;
#X msg 1126 795 set \$1;
#X obj 1126 777 tgl 15 0 empty empty empty 17 7 0 10 -262144 -1 -1
0 1;
#X obj 777 336 tgl 45 0 empty empty empty 17 7 0 10 -204786 -1 -1 0
1;
#X msg 1276 795 set \$1;
#X obj 1276 777 tgl 15 0 empty empty empty 17 7 0 10 -262144 -1 -1
0 1;
#X obj 927 336 tgl 45 0 empty empty empty 17 7 0 10 -204786 -1 -1 0
1;
#X msg 1426 795 set \$1;
#X obj 1426 777 tgl 15 0 empty empty empty 17 7 0 10 -262144 -1 -1
0 1;
#X obj 976 508 sel 1 0;
#X obj 1126 508 sel 1 0;
#X msg 1068 467 set 2 \$1;
#X msg 918 467 set 1 \$1;
#X msg 1218 467 set 3 \$1;
#X msg 1368 467 set 4 \$1;
#X msg 918 588 set 5 \$1;
#X msg 1068 588 set 6 \$1;
#X msg 1218 588 set 7 \$1;
#X msg 1368 588 set 8 \$1;
#X msg 918 705 set 9 \$1;
#X msg 1068 705 set 10 \$1;
#X msg 1218 705 set 11 \$1;
#X msg 1368 705 set 12 \$1;
#X msg 918 815 set 13 \$1;
#X msg 1067 815 set 14 \$1;
#X msg 1218 815 set 15 \$1;
#X msg 1368 815 set 16 \$1;
#X msg 1068 497 2 1;
#X msg 918 497 1 7;
#X msg 1218 497 3 7;
#X msg 1368 497 4 8;
#X msg 918 588 5 8;
#X msg 1068 588 6 2;
#X msg 1218 588 7 4;
#X msg 1368 588 8 3;
#X msg 918 735 9 6;
#X msg 1068 735 10 5;
#X msg 1218 735 11 5;
#X msg 1368 735 12 6;
#X msg 918 835 13 3;
#X msg 1067 835 14 4;
#X msg 1218 835 15 1;
#X msg 1368 835 16 2;
#X obj 826 868 s check;
#X obj 1276 508 sel 1 0;
#X obj 1426 508 sel 1 0;
#X obj 976 626 sel 1 0;
#X obj 1126 626 sel 1 0;
#X obj 1276 626 sel 1 0;
#X obj 1426 626 sel 1 0;
#X obj 976 745 sel 1 0;
#X obj 1126 745 sel 1 0;
#X obj 1276 745 sel 1 0;
#X obj 1426 745 sel 1 0;
#X obj 976 845 sel 1 0;
#X obj 1126 845 sel 1 0;
#X obj 1276 845 sel 1 0;
#X obj 1426 845 sel 1 0;
#X msg 84 448 0;
#X obj 46 813 bng 35 250 50 0 empty empty empty 17 7 0 10 -258113 -1
-1;
#X obj 109 813 bng 35 250 50 0 empty empty empty 17 7 0 10 -4034 -1
-1;
#X obj 35 787 r playwrong;
#X obj 117 787 r playright;
#X obj 38 495 r initwrong;
#X obj 38 516 route 1 2 3 4 5 6 7 8 9 10 11 12 13 14 15 16;
#X obj 15 269 vradio 15 1 0 2 empty empty empty 0 -8 0 10 -262144 -1
-1 1;
#X text 17 103 Hello Kwsta !!;
#X text 34 266 abstract onsets;
#X text 34 283 diatonic scale;
#X text 24 665 wait for feedback sound before trying each pair;
#X text 24 685 start new game to re-shuffle sounds;
#X text 14 141 0 > automatically activate audio on startup;
#X text 14 232 1 > tick box to select set of sounds;
#X text 14 372 2 > press bang to start new game;
#X text 14 642 3 > tick green boxes in pairs to play;
#X text 17 11 Memory Audio Game;
#X text 17 31 by Rovithis Emmanouel;
#X text 17 51 August 2022;
#X text 1174 19 expected input from iOS = numbers 1 - 16;
#X obj 1431 22 inlet iOS;
#N canvas 422 236 1131 542 distribution-of-ones-from-iOS-numbers-to-the-boxes
0;
#X msg 54 160 1;
#X msg 91 159 1;
#X msg 124 160 1;
#X msg 161 159 1;
#X msg 204 160 1;
#X msg 241 159 1;
#X msg 274 160 1;
#X msg 311 159 1;
#X msg 364 160 1;
#X msg 401 159 1;
#X msg 434 160 1;
#X msg 471 159 1;
#X msg 514 160 1;
#X msg 551 159 1;
#X msg 584 160 1;
#X msg 621 159 1;
#X obj 61 379 outlet;
#X obj 121 379 outlet;
#X obj 181 379 outlet;
#X obj 241 379 outlet;
#X obj 301 379 outlet;
#X obj 361 379 outlet;
#X obj 421 379 outlet;
#X obj 481 379 outlet;
#X obj 541 379 outlet;
#X obj 601 379 outlet;
#X obj 661 379 outlet;
#X obj 721 379 outlet;
#X obj 781 379 outlet;
#X obj 841 379 outlet;
#X obj 901 379 outlet;
#X obj 961 379 outlet;
#X obj 58 47 sel 1 2 3 4 5 6 7 8 9 10 11 12 13 14 15 16;
#X obj 401 180;
#X obj 53 10 inlet;
#X floatatom 245 19 5 0 0 0 - - -;
#X connect 0 0 16 0;
#X connect 1 0 17 0;
#X connect 2 0 18 0;
#X connect 3 0 19 0;
#X connect 4 0 20 0;
#X connect 5 0 21 0;
#X connect 6 0 22 0;
#X connect 7 0 23 0;
#X connect 8 0 24 0;
#X connect 9 0 25 0;
#X connect 9 0 33 0;
#X connect 10 0 26 0;
#X connect 11 0 27 0;
#X connect 12 0 28 0;
#X connect 13 0 29 0;
#X connect 14 0 30 0;
#X connect 15 0 31 0;
#X connect 32 0 0 0;
#X connect 32 1 1 0;
#X connect 32 2 2 0;
#X connect 32 3 3 0;
#X connect 32 4 4 0;
#X connect 32 5 5 0;
#X connect 32 6 6 0;
#X connect 32 7 7 0;
#X connect 32 8 8 0;
#X connect 32 9 9 0;
#X connect 32 10 10 0;
#X connect 32 11 11 0;
#X connect 32 12 12 0;
#X connect 32 13 13 0;
#X connect 32 14 14 0;
#X connect 32 15 15 0;
#X connect 34 0 32 0;
#X connect 35 0 32 0;
#X restore 1175 47 pd distribution-of-ones-from-iOS-numbers-to-the-boxes
;
#X connect 0 0 1 0;
#X connect 2 0 3 0;
#X connect 3 0 0 0;
#X connect 5 0 56 0;
#X connect 6 0 5 0;
#X connect 7 0 6 0;
#X connect 8 0 9 0;
#X connect 9 0 59 0;
#X connect 9 1 58 0;
#X connect 9 2 60 0;
#X connect 9 3 61 0;
#X connect 9 4 62 0;
#X connect 9 5 63 0;
#X connect 9 6 64 0;
#X connect 9 7 65 0;
#X connect 9 8 66 0;
#X connect 9 9 67 0;
#X connect 9 10 68 0;
#X connect 9 11 69 0;
#X connect 9 12 70 0;
#X connect 9 13 71 0;
#X connect 9 14 72 0;
#X connect 9 15 73 0;
#X connect 10 0 8 0;
#X connect 10 0 105 0;
#X connect 11 0 57 0;
#X connect 12 0 11 0;
#X connect 13 0 12 0;
#X connect 14 0 91 0;
#X connect 15 0 14 0;
#X connect 16 0 15 0;
#X connect 17 0 92 0;
#X connect 18 0 17 0;
#X connect 19 0 18 0;
#X connect 20 0 93 0;
#X connect 21 0 20 0;
#X connect 22 0 21 0;
#X connect 23 0 94 0;
#X connect 24 0 23 0;
#X connect 25 0 24 0;
#X connect 26 0 95 0;
#X connect 27 0 26 0;
#X connect 28 0 27 0;
#X connect 29 0 96 0;
#X connect 30 0 29 0;
#X connect 31 0 30 0;
#X connect 32 0 97 0;
#X connect 33 0 32 0;
#X connect 34 0 33 0;
#X connect 35 0 98 0;
#X connect 36 0 35 0;
#X connect 37 0 36 0;
#X connect 38 0 99 0;
#X connect 39 0 38 0;
#X connect 40 0 39 0;
#X connect 41 0 100 0;
#X connect 42 0 41 0;
#X connect 43 0 42 0;
#X connect 44 0 101 0;
#X connect 45 0 44 0;
#X connect 46 0 45 0;
#X connect 47 0 102 0;
#X connect 48 0 47 0;
#X connect 49 0 48 0;
#X connect 50 0 103 0;
#X connect 51 0 50 0;
#X connect 52 0 51 0;
#X connect 53 0 104 0;
#X connect 54 0 53 0;
#X connect 55 0 54 0;
#X connect 56 0 75 0;
#X connect 57 0 74 0;
#X connect 58 0 74 0;
#X connect 59 0 75 0;
#X connect 60 0 76 0;
#X connect 61 0 77 0;
#X connect 62 0 78 0;
#X connect 63 0 79 0;
#X connect 64 0 80 0;
#X connect 65 0 81 0;
#X connect 66 0 82 0;
#X connect 67 0 83 0;
#X connect 68 0 84 0;
#X connect 69 0 85 0;
#X connect 70 0 86 0;
#X connect 71 0 87 0;
#X connect 72 0 88 0;
#X connect 73 0 89 0;
#X connect 74 0 90 0;
#X connect 75 0 90 0;
#X connect 76 0 90 0;
#X connect 77 0 90 0;
#X connect 78 0 90 0;
#X connect 79 0 90 0;
#X connect 80 0 90 0;
#X connect 81 0 90 0;
#X connect 82 0 90 0;
#X connect 83 0 90 0;
#X connect 84 0 90 0;
#X connect 85 0 90 0;
#X connect 86 0 90 0;
#X connect 87 0 90 0;
#X connect 88 0 90 0;
#X connect 89 0 90 0;
#X connect 91 0 76 0;
#X connect 92 0 77 0;
#X connect 93 0 78 0;
#X connect 94 0 79 0;
#X connect 95 0 80 0;
#X connect 96 0 81 0;
#X connect 97 0 82 0;
#X connect 98 0 83 0;
#X connect 99 0 84 0;
#X connect 100 0 85 0;
#X connect 101 0 86 0;
#X connect 102 0 87 0;
#X connect 103 0 88 0;
#X connect 104 0 89 0;
#X connect 105 0 7 0;
#X connect 105 0 55 0;
#X connect 105 0 52 0;
#X connect 105 0 49 0;
#X connect 105 0 46 0;
#X connect 105 0 43 0;
#X connect 105 0 40 0;
#X connect 105 0 37 0;
#X connect 105 0 34 0;
#X connect 105 0 31 0;
#X connect 105 0 28 0;
#X connect 105 0 25 0;
#X connect 105 0 22 0;
#X connect 105 0 19 0;
#X connect 105 0 16 0;
#X connect 105 0 13 0;
#X connect 108 0 106 0;
#X connect 109 0 107 0;
#X connect 110 0 111 0;
#X connect 111 0 7 0;
#X connect 111 1 13 0;
#X connect 111 2 16 0;
#X connect 111 3 19 0;
#X connect 111 4 22 0;
#X connect 111 5 25 0;
#X connect 111 6 28 0;
#X connect 111 7 31 0;
#X connect 111 8 34 0;
#X connect 111 9 94 0;
#X connect 111 9 37 0;
#X connect 111 10 40 0;
#X connect 111 11 43 0;
#X connect 111 12 46 0;
#X connect 111 13 49 0;
#X connect 111 14 52 0;
#X connect 111 15 55 0;
#X connect 112 0 4 0;
#X connect 126 0 127 0;
#X connect 127 0 5 0;
#X connect 127 1 11 0;
#X connect 127 2 14 0;
#X connect 127 3 17 0;
#X connect 127 4 20 0;
#X connect 127 5 23 0;
#X connect 127 6 26 0;
#X connect 127 7 29 0;
#X connect 127 8 32 0;
#X connect 127 9 35 0;
#X connect 127 10 38 0;
#X connect 127 11 41 0;
#X connect 127 12 44 0;
#X connect 127 13 47 0;
#X connect 127 14 50 0;
#X connect 127 15 53 0;
